<svg xmlns="http://www.w3.org/2000/svg" xmlns:xlink="http://www.w3.org/1999/xlink" width="250" height="320" viewBox="0 0 250 320"><rect width="100%" height="100%" fill="#DDDDDD"/><path d="M55.89 168.63L62.39 168.63Q63.09 168.63 63.50 169.02Q63.91 169.41 63.91 170.06L63.91 170.06L63.91 172.65L46.55 172.65L46.55 171.22Q46.55 170.78 46.73 170.30Q46.91 169.82 47.32 169.43L47.32 169.43L55 161.73Q55.96 160.75 56.72 159.86Q57.48 158.97 57.99 158.09Q58.50 157.22 58.77 156.32Q59.04 155.41 59.04 154.42L59.04 154.42Q59.04 153.51 58.78 152.82Q58.52 152.13 58.04 151.65Q57.55 151.18 56.88 150.94Q56.21 150.71 55.37 150.71L55.37 150.71Q54.60 150.71 53.94 150.93Q53.29 151.15 52.78 151.54Q52.27 151.93 51.92 152.46Q51.57 152.98 51.40 153.61L51.40 153.61Q51.10 154.42 50.63 154.68Q50.15 154.94 49.26 154.80L49.26 154.80L46.98 154.40Q47.25 152.58 48 151.21Q48.75 149.83 49.88 148.91Q51.01 148.00 52.47 147.53Q53.93 147.07 55.61 147.07L55.61 147.07Q57.36 147.07 58.82 147.58Q60.27 148.10 61.30 149.05Q62.33 149.99 62.91 151.32Q63.49 152.65 63.49 154.28L63.49 154.28Q63.49 155.68 63.08 156.87Q62.67 158.06 61.97 159.14Q61.28 160.23 60.36 161.24Q59.43 162.26 58.41 163.31L58.41 163.31L52.71 169.13Q53.53 168.89 54.34 168.76Q55.16 168.63 55.89 168.63L55.89 168.63ZM73.52 151.27L72.62 156.53Q73.46 156.36 74.23 156.28Q75.00 156.20 75.72 156.20L75.72 156.20Q77.72 156.20 79.24 156.80Q80.76 157.39 81.79 158.44Q82.83 159.49 83.35 160.90Q83.88 162.31 83.88 163.94L83.88 163.94Q83.88 165.95 83.17 167.61Q82.46 169.28 81.20 170.46Q79.94 171.64 78.21 172.28Q76.49 172.93 74.46 172.93L74.46 172.93Q73.27 172.93 72.20 172.69Q71.14 172.44 70.20 172.03Q69.26 171.62 68.47 171.09Q67.67 170.55 67.04 169.96L67.04 169.96L68.37 168.12Q68.79 167.53 69.47 167.53L69.47 167.53Q69.91 167.53 70.36 167.81Q70.82 168.09 71.41 168.42Q71.99 168.75 72.79 169.03Q73.58 169.31 74.70 169.31L74.70 169.31Q75.89 169.31 76.81 168.93Q77.72 168.54 78.32 167.85Q78.92 167.16 79.23 166.20Q79.53 165.25 79.53 164.13L79.53 164.13Q79.53 162.06 78.34 160.90Q77.14 159.74 74.79 159.74L74.79 159.74Q72.99 159.74 71.10 160.40L71.10 160.40L68.41 159.63L70.50 147.35L83 147.35L83 149.19Q83 150.11 82.42 150.69Q81.84 151.27 80.46 151.27L80.46 151.27L73.52 151.27ZM105.24 160L105.24 160Q105.24 163.31 104.53 165.75Q103.82 168.19 102.57 169.78Q101.32 171.38 99.62 172.15Q97.91 172.93 95.93 172.93L95.93 172.93Q93.95 172.93 92.27 172.15Q90.58 171.38 89.33 169.78Q88.09 168.19 87.39 165.75Q86.69 163.31 86.69 160L86.69 160Q86.69 156.68 87.39 154.24Q88.09 151.81 89.33 150.22Q90.58 148.63 92.27 147.85Q93.95 147.07 95.93 147.07L95.93 147.07Q97.91 147.07 99.62 147.85Q101.32 148.63 102.57 150.22Q103.82 151.81 104.53 154.24Q105.24 156.68 105.24 160ZM100.78 160L100.78 160Q100.78 157.25 100.38 155.45Q99.97 153.65 99.30 152.58Q98.63 151.51 97.75 151.08Q96.88 150.66 95.93 150.66L95.93 150.66Q95.00 150.66 94.14 151.08Q93.27 151.51 92.61 152.58Q91.94 153.65 91.55 155.45Q91.16 157.25 91.16 160L91.16 160Q91.16 162.75 91.55 164.55Q91.94 166.35 92.61 167.42Q93.27 168.49 94.14 168.92Q95.00 169.34 95.93 169.34L95.93 169.34Q96.88 169.34 97.75 168.92Q98.63 168.49 99.30 167.42Q99.97 166.35 100.38 164.55Q100.78 162.75 100.78 160ZM133.03 166.86L130.74 169.12L124.81 163.19L118.82 169.15L116.53 166.90L122.51 160.89L116.81 155.19L119.08 152.91L124.79 158.62L130.46 152.95L132.77 155.22L127.08 160.91L133.03 166.86ZM147.59 154.80L145.32 154.40Q145.58 152.58 146.33 151.21Q147.08 149.83 148.21 148.91Q149.34 148.00 150.80 147.53Q152.26 147.07 153.94 147.07L153.94 147.07Q155.69 147.07 157.10 147.57Q158.51 148.06 159.51 148.95Q160.51 149.83 161.04 151.02Q161.57 152.21 161.57 153.59L161.57 153.59Q161.57 154.80 161.30 155.72Q161.03 156.64 160.52 157.32Q160.02 158.00 159.26 158.48Q158.51 158.95 157.57 159.27L157.57 159.27Q159.84 159.98 160.96 161.45Q162.08 162.92 162.08 165.15L162.08 165.15Q162.08 167.03 161.38 168.49Q160.68 169.94 159.49 170.93Q158.30 171.92 156.74 172.43Q155.17 172.93 153.42 172.93L153.42 172.93Q151.51 172.93 150.09 172.50Q148.68 172.06 147.63 171.20Q146.58 170.34 145.84 169.10Q145.11 167.86 144.58 166.23L144.58 166.23L146.49 165.44Q147.24 165.13 147.90 165.28Q148.55 165.43 148.85 165.99L148.85 165.99Q149.17 166.60 149.54 167.19Q149.92 167.79 150.44 168.25Q150.97 168.72 151.68 169.00Q152.39 169.29 153.37 169.29L153.37 169.29Q154.47 169.29 155.29 168.93Q156.11 168.57 156.67 168.00Q157.22 167.42 157.49 166.71Q157.76 166.00 157.76 165.28L157.76 165.28Q157.76 164.38 157.57 163.63Q157.37 162.89 156.76 162.36Q156.15 161.84 155.00 161.54Q153.86 161.24 151.93 161.24L151.93 161.24L151.93 158.16Q153.52 158.15 154.57 157.87Q155.62 157.59 156.25 157.09Q156.87 156.59 157.11 155.89Q157.36 155.19 157.36 154.35L157.36 154.35Q157.36 152.56 156.36 151.63Q155.36 150.71 153.70 150.71L153.70 150.71Q152.93 150.71 152.28 150.93Q151.63 151.15 151.12 151.54Q150.60 151.93 150.25 152.46Q149.90 152.98 149.73 153.61L149.73 153.61Q149.43 154.42 148.95 154.68Q148.47 154.94 147.59 154.80L147.59 154.80ZM174.40 168.63L180.89 168.63Q181.59 168.63 182.01 169.02Q182.42 169.41 182.42 170.06L182.42 170.06L182.42 172.65L165.06 172.65L165.06 171.22Q165.06 170.78 165.24 170.30Q165.42 169.82 165.83 169.43L165.83 169.43L173.51 161.73Q174.47 160.75 175.23 159.86Q176.00 158.97 176.50 158.09Q177.01 157.22 177.28 156.32Q177.55 155.41 177.55 154.42L177.55 154.42Q177.55 153.51 177.29 152.82Q177.03 152.13 176.55 151.65Q176.06 151.18 175.39 150.94Q174.72 150.71 173.88 150.71L173.88 150.71Q173.11 150.71 172.45 150.93Q171.79 151.15 171.29 151.54Q170.78 151.93 170.43 152.46Q170.08 152.98 169.91 153.61L169.91 153.61Q169.61 154.42 169.13 154.68Q168.66 154.94 167.77 154.80L167.77 154.80L165.50 154.40Q165.76 152.58 166.51 151.21Q167.26 149.83 168.39 148.91Q169.52 148.00 170.98 147.53Q172.44 147.07 174.12 147.07L174.12 147.07Q175.87 147.07 177.32 147.58Q178.78 148.10 179.81 149.05Q180.84 149.99 181.42 151.32Q182.00 152.65 182.00 154.28L182.00 154.28Q182.00 155.68 181.59 156.87Q181.17 158.06 180.48 159.14Q179.79 160.23 178.86 161.24Q177.94 162.26 176.92 163.31L176.92 163.31L171.22 169.13Q172.04 168.89 172.85 168.76Q173.67 168.63 174.40 168.63L174.40 168.63ZM203.45 160L203.45 160Q203.45 163.31 202.74 165.75Q202.03 168.19 200.78 169.78Q199.53 171.38 197.83 172.15Q196.12 172.93 194.14 172.93L194.14 172.93Q192.16 172.93 190.48 172.15Q188.79 171.38 187.55 169.78Q186.30 168.19 185.60 165.75Q184.90 163.31 184.90 160L184.90 160Q184.90 156.68 185.60 154.24Q186.30 151.81 187.55 150.22Q188.79 148.63 190.48 147.85Q192.16 147.07 194.14 147.07L194.14 147.07Q196.12 147.07 197.83 147.85Q199.53 148.63 200.78 150.22Q202.03 151.81 202.74 154.24Q203.45 156.68 203.45 160ZM198.99 160L198.99 160Q198.99 157.25 198.59 155.45Q198.19 153.65 197.51 152.58Q196.84 151.51 195.96 151.08Q195.09 150.66 194.14 150.66L194.14 150.66Q193.22 150.66 192.35 151.08Q191.48 151.51 190.82 152.58Q190.15 153.65 189.76 155.45Q189.37 157.25 189.37 160L189.37 160Q189.37 162.75 189.76 164.55Q190.15 166.35 190.82 167.42Q191.48 168.49 192.35 168.92Q193.22 169.34 194.14 169.34L194.14 169.34Q195.09 169.34 195.96 168.92Q196.84 168.49 197.51 167.42Q198.19 166.35 198.59 164.55Q198.99 162.75 198.99 160Z" fill="#999999"/></svg>